<svg width="1080" height="420" viewBox="0 0 1080 420" fill="none" xmlns="http://www.w3.org/2000/svg">
  <title>CookMoxs CS-02 v1 Summer contour study</title>
  <desc>Summer contour foundation with broader, warmer, fuller phrasing than Spring, but lighter and less settled than Autumn. Natural canopy silhouette first, hidden Vivaldi structure second.</desc>

  <rect width="1080" height="420" fill="#F4EAD2"/>

  <!-- broad structural field: contour study only, not a background -->
  <path d="
      M0 204
      C34 192, 68 184, 104 186
      C140 188, 176 199, 212 211
      C248 223, 284 231, 320 229
      C356 227, 392 216, 428 201
      C464 186, 500 174, 536 173
      C572 172, 608 180, 644 193
      C680 206, 716 216, 752 216
      C788 216, 824 207, 860 193
      C896 179, 932 168, 968 168
      C1004 168, 1042 178, 1080 194
      L1080 420
      L0 420
      Z"
      fill="#AFA55F" opacity="0.15"/>

  <!-- main contour: broader canopy rhythm, fuller than Spring, not as settled as Autumn -->
  <path d="
      M0 196
      C30 184, 60 176, 92 176
      C124 176, 156 185, 188 197
      C220 209, 252 218, 284 217
      C316 216, 348 207, 380 194
      C412 181, 444 168, 478 163
      C512 158, 546 161, 580 171
      C614 181, 648 194, 682 198
      C716 202, 750 198, 784 188
      C818 178, 852 165, 886 158
      C920 151, 954 154, 988 165
      C1022 176, 1054 190, 1080 201"
      stroke="#5E6B3E" stroke-width="10" stroke-linecap="round" stroke-linejoin="round"/>

  <!-- secondary contour: warm abundance and latent summer tension without spikes -->
  <path d="
      M0 216
      C32 207, 64 201, 96 202
      C128 203, 160 211, 192 220
      C224 229, 256 235, 288 234
      C320 233, 352 226, 384 216
      C416 206, 448 196, 480 191
      C512 186, 544 188, 576 196
      C608 204, 640 214, 672 219
      C704 224, 736 223, 768 216
      C800 209, 832 199, 864 191
      C896 183, 928 179, 962 181
      C996 183, 1032 191, 1080 204"
      stroke="#768446" stroke-width="5" stroke-linecap="round" stroke-linejoin="round" opacity="0.82"/>

  <!-- interior support contour: keeps center alive while preserving breathability -->
  <path d="
      M0 244
      C38 238, 76 235, 114 236
      C152 237, 190 242, 228 247
      C266 252, 304 255, 340 252
      C376 249, 412 242, 448 235
      C484 228, 520 224, 556 225
      C592 226, 628 232, 664 239
      C700 246, 736 249, 772 247
      C808 245, 844 239, 880 232
      C916 225, 952 221, 988 223
      C1024 225, 1055 231, 1080 237"
      stroke="#91995C" stroke-width="3" stroke-linecap="round" stroke-linejoin="round" opacity="0.5"/>
</svg>