<svg xmlns="http://www.w3.org/2000/svg" viewBox="0 0 1800 1800" role="img" aria-label="CookMoxs master mark">
<g transform="translate(0.000000,1800.000000) scale(0.100000,-0.100000)" fill="#000000" stroke="none"> <path d="M8746 15563 c-13 -45 -55 -245 -65 -308 -18 -123 -24 -373 -12 -530 9 -125 17 -169 48 -265 20 -63 41 -124 48 -135 7 -11 20 -42 29 -70 32 -96 166 -305 283 -440 99 -115 277 -266 388 -329 85 -49 324 -165 391 -189 180 -68 284 -127 361 -206 35 -35 63 -69 63 -75 0 -6 11 -27 23 -46 13 -19 32 -58 41 -87 9 -28 23 -56 30 -62 8 -6 19 -33 26 -59 7 -26 24 -71 36 -100 13 -29 28 -80 34 -115 7 -34 26 -105 43 -157 l32 -95 0 -360 c0 -361 -12 -572 -40 -685 -7 -30 -18 -89 -25 -130 -12 -82 -69 -285 -101 -365 -12 -27 -29 -75 -39 -105 -41 -128 -165 -375 -227 -454 -13 -16 -23 -33 -23 -37 0 -10 -76 -121 -140 -204 -78 -101 -98 -128 -144 -196 -24 -37 -49 -70 -56 -74 -28 -18 -59 8 -134 112 -42 60 -92 128 -111 153 -79 103 -167 233 -207 305 -121 220 -214 459 -253 655 -8 41 -20 91 -26 110 -6 19 -13 109 -16 200 -5 164 -4 166 30 303 20 77 52 171 72 212 86 172 311 324 439 295 43 -10 83 1 92 25 11 28 -16 99 -59 154 -39 51 -48 56 -137 87 -81 29 -109 33 -185 33 -115 0 -197 -11 -365 -47 -145 -32 -241 -67 -360 -131 -41 -22 -97 -51 -125 -66 -27 -14 -73 -40 -101 -58 -28 -17 -65 -41 -83 -52 -68 -42 -158 -101 -196 -130 -79 -60 -271 -224 -311 -266 -52 -56 -190 -223 -227 -275 -41 -57 -153 -238 -176 -281 -10 -21 -35 -67 -54 -103 -92 -172 -127 -245 -127 -266 0 -13 -15 -58 -34 -101 -18 -43 -37 -100 -40 -128 -4 -27 -16 -95 -27 -150 -35 -184 -49 -510 -30 -695 13 -117 64 -319 110 -432 46 -113 97 -214 111 -223 6 -3 19 -24 31 -46 76 -150 438 -489 559 -524 14 -4 41 -17 60 -29 178 -109 449 -215 590 -231 36 -4 76 -11 89 -16 75 -29 235 -41 526 -42 271 -1 309 1 395 21 52 12 133 26 178 32 97 13 130 24 138 45 10 25 -14 43 -69 50 -99 12 -302 57 -346 76 -24 10 -49 19 -56 19 -31 0 -326 168 -424 242 -205 154 -331 288 -488 518 -97 143 -201 370 -240 525 -8 33 -24 96 -35 140 -17 64 -22 121 -25 285 -3 116 -1 227 5 255 39 195 64 298 86 350 14 33 26 66 26 74 0 7 11 34 24 60 14 25 47 94 75 153 51 107 109 184 133 176 16 -6 16 -50 0 -137 -34 -191 55 -552 191 -770 15 -25 27 -50 27 -55 0 -11 59 -111 115 -196 42 -63 243 -297 297 -345 77 -69 121 -101 243 -180 154 -99 312 -155 385 -135 69 19 291 138 380 205 29 22 67 50 84 61 17 12 96 84 175 160 134 130 190 192 251 284 14 20 43 63 65 95 160 230 284 467 320 611 8 33 23 81 34 105 10 24 29 112 41 194 12 83 24 153 27 158 10 17 3 217 -11 289 -14 75 -10 128 10 135 26 9 93 -91 94 -140 0 -10 13 -53 29 -95 48 -127 72 -203 92 -287 10 -44 27 -106 38 -137 18 -52 38 -144 73 -338 9 -53 13 -172 13 -405 0 -277 -3 -340 -17 -390 -9 -33 -24 -107 -33 -165 -18 -107 -68 -273 -111 -368 -13 -29 -24 -60 -24 -69 0 -9 -13 -37 -29 -62 -16 -25 -32 -57 -36 -71 -4 -14 -18 -41 -30 -60 -12 -19 -42 -69 -65 -110 -66 -113 -154 -233 -256 -350 -130 -149 -200 -210 -434 -383 -179 -132 -255 -179 -370 -230 -47 -21 -112 -51 -145 -67 -127 -62 -360 -129 -575 -165 -80 -14 -179 -32 -220 -40 -100 -20 -395 -20 -575 0 -146 16 -410 62 -435 75 -8 5 -56 18 -105 29 -49 12 -99 28 -111 36 -12 7 -50 21 -85 30 -35 9 -77 25 -94 35 -16 9 -42 20 -57 24 -25 6 -196 86 -243 114 -11 6 -36 18 -55 27 -19 8 -51 26 -70 40 -19 14 -59 42 -89 62 -187 131 -461 376 -495 442 -21 39 -65 63 -90 49 -16 -9 -18 -20 -12 -107 13 -195 56 -316 158 -451 10 -14 37 -50 58 -80 55 -76 188 -209 284 -286 45 -36 109 -87 144 -115 65 -52 281 -166 381 -200 30 -11 64 -25 75 -32 30 -20 223 -90 356 -130 226 -69 267 -78 390 -93 69 -8 170 -23 225 -35 55 -11 180 -25 280 -31 218 -12 627 -3 750 17 239 39 332 56 355 65 14 5 70 21 125 35 55 13 150 43 210 66 61 22 145 54 188 70 74 27 281 127 357 171 19 12 73 43 120 71 47 27 119 75 160 107 41 31 109 82 151 113 80 60 329 305 378 373 16 22 37 56 46 74 10 19 38 61 64 94 60 78 105 146 136 205 14 25 29 53 35 61 19 32 90 186 90 198 0 7 11 34 24 60 13 26 31 70 39 97 9 28 25 73 36 100 33 83 79 302 93 445 17 181 13 562 -7 721 -28 223 -87 449 -162 624 -42 97 -101 224 -114 245 -5 8 -23 42 -40 75 -45 88 -82 155 -112 202 -15 24 -27 45 -27 48 0 4 -11 21 -25 39 -14 18 -25 38 -25 44 0 22 -281 435 -393 578 -17 23 -78 103 -135 177 -56 75 -115 149 -130 164 -87 89 -294 347 -373 464 -20 30 -62 83 -93 118 -31 36 -56 73 -56 83 0 28 33 36 190 46 80 6 193 20 250 32 137 30 371 96 440 125 30 13 66 26 80 30 33 10 194 88 250 121 109 65 314 243 365 318 34 49 84 130 96 156 48 100 72 163 89 229 11 42 27 100 35 130 22 81 37 250 33 385 -3 114 -4 120 -28 137 -37 28 -152 41 -364 43 -174 1 -203 -2 -331 -28 -77 -15 -162 -37 -190 -48 -27 -11 -71 -26 -96 -34 -241 -73 -541 -327 -684 -579 -100 -176 -122 -228 -184 -431 -16 -50 -31 -96 -35 -102 -4 -6 -16 -53 -27 -104 -24 -108 -51 -176 -75 -185 -36 -14 -41 17 -47 324 -5 211 -11 314 -21 354 -8 31 -24 111 -35 178 -12 68 -32 150 -46 184 -13 34 -28 80 -33 102 -12 51 -81 193 -130 267 -74 112 -92 137 -149 206 -101 120 -303 296 -453 393 -139 91 -252 155 -298 170 -20 6 -46 17 -58 24 -11 7 -52 22 -90 34 -38 11 -109 36 -159 56 -102 40 -121 42 -129 18z m764 -1072 c52 -53 139 -139 194 -191 91 -88 127 -132 198 -243 60 -94 108 -189 126 -254 11 -37 25 -81 31 -98 21 -61 61 -217 61 -240 0 -55 -56 -43 -99 21 -16 25 -65 87 -108 137 -72 85 -203 261 -203 273 0 3 -19 36 -43 72 -56 87 -61 97 -97 162 -16 30 -36 66 -44 80 -8 14 -23 43 -34 65 -10 22 -40 81 -66 130 -64 121 -79 164 -65 182 20 24 51 4 149 -96z m2328 -221 c3 -17 -8 -35 -40 -65 -23 -23 -68 -73 -98 -111 -110 -138 -341 -363 -494 -479 -87 -66 -148 -112 -197 -145 -28 -19 -68 -48 -89 -65 -21 -16 -52 -39 -71 -50 -18 -11 -55 -34 -83 -52 -71 -45 -76 -47 -88 -35 -8 8 -4 22 14 49 102 156 147 226 163 258 15 30 54 86 132 188 69 91 287 268 383 313 19 9 46 24 60 34 14 9 68 36 120 59 52 23 104 47 115 53 81 46 150 78 159 75 6 -2 13 -14 14 -27z" class="" stroke-width="1"></path> <path d="M8011 13939 c-25 -27 -105 -227 -131 -328 -34 -135 -36 -211 -6 -326 76 -293 253 -463 601 -577 l120 -39 225 -2 c273 -1 521 13 544 32 37 31 21 52 -224 300 -70 71 -252 232 -363 321 -193 155 -269 220 -342 290 -44 43 -114 107 -155 143 -41 35 -103 96 -138 136 -69 77 -96 88 -131 50z" stroke-width="1"></path> <path d="M7115 12945 c-27 -13 -104 -40 -170 -61 -149 -46 -373 -146 -425 -189 -8 -7 -34 -22 -57 -34 -23 -11 -58 -31 -77 -43 -19 -13 -54 -34 -77 -48 -116 -69 -191 -119 -288 -195 -21 -16 -62 -48 -91 -70 -78 -58 -244 -210 -355 -324 -120 -123 -152 -166 -344 -461 -22 -35 -66 -115 -97 -180 -15 -30 -36 -67 -46 -82 -24 -34 -21 -81 5 -86 13 -3 43 23 95 78 113 123 612 549 942 805 28 22 103 81 165 130 210 167 343 268 375 285 11 6 66 48 121 93 56 45 115 92 132 104 18 12 93 73 167 135 107 90 135 118 135 138 0 21 -5 25 -30 27 -16 1 -52 -8 -80 -22z" stroke-width="1"></path> <path d="M11670 12683 c-22 -8 -39 -33 -33 -49 3 -8 39 -38 82 -68 110 -78 347 -297 494 -458 110 -121 146 -164 211 -254 28 -38 73 -96 101 -129 28 -33 67 -82 87 -110 36 -51 158 -252 158 -260 0 -3 30 -65 66 -137 36 -73 74 -158 84 -188 10 -30 27 -77 38 -105 33 -84 80 -237 92 -300 7 -33 18 -82 25 -110 12 -45 27 -154 56 -425 27 -258 -14 -621 -108 -950 -8 -30 -25 -92 -38 -136 -13 -45 -30 -97 -38 -115 -9 -19 -27 -62 -41 -96 -63 -153 -80 -189 -97 -212 -11 -13 -19 -29 -19 -36 0 -7 -16 -36 -35 -65 -19 -29 -35 -54 -35 -57 0 -18 -118 -196 -190 -288 -30 -39 -69 -90 -85 -115 -32 -48 -287 -315 -372 -390 -108 -94 -331 -264 -409 -313 -16 -9 -43 -27 -61 -40 -18 -12 -54 -35 -80 -51 -26 -16 -64 -40 -84 -53 -43 -28 -74 -45 -261 -141 -79 -41 -161 -80 -183 -88 -22 -8 -71 -27 -110 -43 -76 -32 -170 -63 -261 -87 -66 -17 -84 -29 -84 -54 0 -27 19 -30 167 -20 76 5 235 12 353 15 163 6 229 12 275 25 33 10 83 21 110 25 129 16 195 28 248 46 31 10 64 19 73 19 23 0 455 137 534 170 25 10 68 21 95 25 28 4 92 20 143 36 80 25 108 29 210 29 133 0 162 -11 162 -59 0 -22 -17 -42 -87 -102 -48 -41 -99 -83 -114 -94 -15 -11 -54 -41 -87 -67 -33 -26 -76 -54 -94 -64 -18 -9 -40 -23 -49 -30 -8 -8 -35 -25 -60 -37 -24 -13 -71 -39 -104 -57 -185 -102 -415 -192 -650 -256 -49 -13 -110 -31 -135 -39 -25 -8 -92 -22 -150 -30 -58 -8 -144 -23 -190 -34 -47 -11 -134 -25 -195 -31 -60 -6 -128 -15 -150 -20 -84 -18 -254 -42 -365 -51 -63 -4 -158 -13 -210 -19 -145 -16 -770 -28 -995 -19 -309 12 -615 28 -660 34 -22 3 -103 10 -180 15 -77 5 -175 17 -218 25 -44 8 -138 22 -210 30 -72 9 -174 26 -226 39 -53 13 -118 27 -146 30 -27 4 -95 18 -150 31 -55 13 -133 31 -174 40 -40 9 -89 22 -109 31 -19 8 -62 21 -96 29 -34 9 -86 26 -116 40 -82 37 -238 95 -253 95 -8 0 -39 14 -70 30 -31 17 -62 30 -69 30 -8 0 -29 10 -48 23 -19 13 -51 30 -70 37 -90 36 -211 121 -297 206 -74 74 -88 99 -108 195 -35 172 -10 193 144 118 46 -23 121 -55 165 -71 45 -17 115 -43 156 -58 265 -99 612 -190 842 -220 245 -32 405 -50 481 -55 48 -2 96 -9 106 -15 24 -12 58 -13 65 -1 20 32 -31 65 -142 92 -177 45 -391 139 -677 299 -71 40 -143 80 -160 89 -34 19 -89 54 -188 120 -38 25 -83 55 -100 66 -71 44 -128 92 -256 213 -192 182 -344 367 -446 542 -16 28 -56 92 -88 143 -77 122 -153 281 -194 407 -8 25 -25 72 -38 105 -12 33 -28 87 -34 120 -7 33 -18 78 -26 100 -35 102 -64 343 -72 600 -5 165 -3 210 17 345 28 192 69 352 119 461 16 35 46 102 66 149 37 83 96 183 115 195 6 4 19 3 30 0 24 -8 26 -45 5 -104 -40 -114 -40 -397 0 -726 8 -66 15 -145 15 -176 0 -32 3 -64 6 -73 8 -21 37 -20 56 2 30 34 39 64 53 175 8 62 20 128 29 147 8 19 22 71 31 115 9 44 27 105 40 135 12 30 32 82 43 115 29 89 75 209 117 305 20 47 47 110 60 140 30 72 90 193 123 251 116 197 136 224 324 439 79 91 155 178 168 193 37 42 300 263 417 350 81 60 210 141 255 160 50 21 68 48 47 73 -24 30 -74 16 -459 -128 -36 -14 -110 -48 -165 -76 -55 -28 -147 -73 -205 -102 -58 -28 -116 -58 -130 -66 -14 -8 -36 -19 -50 -25 -14 -5 -54 -27 -90 -49 -36 -21 -87 -51 -115 -66 -27 -15 -64 -37 -81 -50 -17 -13 -34 -24 -38 -24 -10 0 -223 -128 -276 -167 -25 -18 -65 -47 -90 -65 -88 -64 -287 -224 -400 -322 -202 -175 -517 -506 -596 -625 -16 -24 -40 -61 -54 -81 -14 -21 -34 -50 -44 -66 -10 -16 -34 -52 -52 -80 -19 -28 -34 -54 -34 -58 0 -4 -11 -22 -24 -39 -29 -40 -90 -159 -106 -209 -6 -21 -15 -40 -20 -43 -5 -3 -19 -38 -30 -78 -12 -40 -30 -96 -41 -125 -10 -29 -26 -92 -35 -140 -9 -48 -22 -118 -30 -157 -22 -111 -28 -434 -11 -530 36 -193 58 -286 87 -357 16 -42 30 -81 30 -86 0 -10 61 -148 83 -187 6 -11 20 -38 30 -60 11 -22 32 -58 47 -80 38 -57 92 -142 126 -198 26 -42 78 -109 219 -276 38 -45 295 -289 398 -378 26 -23 61 -58 78 -79 26 -33 28 -39 15 -52 -12 -12 -27 -12 -101 -1 -71 10 -123 10 -283 0 -274 -18 -366 -43 -456 -121 -97 -86 -84 -253 29 -385 91 -107 167 -168 306 -250 96 -55 389 -151 492 -162 83 -8 118 -25 149 -76 15 -23 38 -58 52 -77 175 -238 253 -336 325 -408 145 -146 335 -320 404 -370 127 -92 245 -172 252 -172 5 0 23 -11 41 -25 18 -14 35 -25 38 -25 3 0 54 -30 113 -66 59 -37 127 -75 149 -84 23 -10 45 -23 48 -28 3 -6 23 -16 44 -23 20 -6 48 -20 62 -29 14 -9 50 -25 80 -35 30 -10 76 -28 102 -41 26 -13 54 -24 62 -24 8 0 50 -13 93 -29 255 -94 681 -211 843 -231 52 -7 136 -21 185 -31 50 -10 146 -24 215 -29 69 -6 186 -17 260 -26 440 -51 1333 -20 1670 57 47 11 139 28 205 39 137 22 341 68 464 105 46 14 91 25 100 25 9 0 75 21 146 46 72 26 161 57 200 71 38 13 79 30 90 37 11 7 38 19 60 26 22 7 56 23 75 35 19 12 46 25 60 30 14 4 44 17 67 30 23 13 59 29 80 35 21 7 45 18 53 25 8 7 68 41 133 76 64 35 142 78 171 94 30 17 73 41 97 54 48 26 72 43 274 186 246 174 443 352 584 527 102 127 117 149 170 250 61 118 77 180 62 252 -22 105 -75 178 -154 211 -63 26 -175 45 -281 48 -91 2 -107 -1 -147 -22 -78 -42 -107 -3 -48 64 59 67 77 71 404 85 272 12 356 32 575 139 113 55 142 74 236 152 251 211 386 455 445 804 24 140 29 200 29 340 0 94 -5 186 -10 205 -6 19 -17 95 -25 169 -9 83 -25 170 -43 230 -17 53 -35 114 -40 136 -6 22 -29 92 -52 155 -22 63 -47 135 -56 159 -19 59 -39 88 -65 96 -32 11 -38 -9 -32 -107 3 -48 1 -120 -5 -160 -36 -228 -45 -277 -59 -313 -8 -22 -24 -78 -34 -123 -11 -46 -28 -100 -38 -120 -10 -21 -24 -54 -31 -75 -23 -72 -131 -267 -226 -407 -115 -171 -326 -390 -469 -487 -131 -88 -185 -122 -250 -155 -104 -54 -205 -98 -225 -98 -19 0 -118 -33 -165 -54 -43 -20 -366 -32 -470 -17 -117 16 -228 43 -247 59 -25 21 -22 66 6 93 13 12 52 32 87 45 109 37 198 73 222 88 12 8 54 27 92 41 39 15 75 30 80 35 6 4 28 13 50 20 22 7 45 17 51 22 7 5 40 22 74 39 34 16 74 38 88 48 15 10 54 36 87 57 60 39 148 102 195 139 53 42 279 273 318 325 22 30 68 89 101 130 154 192 312 570 343 820 19 157 16 722 -5 865 -15 108 -53 261 -84 340 -8 22 -25 67 -38 100 -55 145 -87 219 -104 244 -10 14 -22 37 -26 51 -4 14 -20 43 -35 65 -15 22 -48 72 -74 110 -86 130 -200 278 -314 410 -129 148 -460 466 -598 573 -107 83 -207 154 -289 203 -93 56 -130 79 -195 121 -106 68 -155 96 -180 103 -14 5 -41 18 -60 29 -98 61 -299 133 -459 165 -111 22 -108 22 -131 14z m-1854 -7148 c15 -23 15 -27 0 -50 -29 -44 -86 -25 -86 29 0 40 5 46 41 46 19 0 34 -8 45 -25z" class="" stroke-width="1"></path>                                           </g>
</svg>
