<svg width="1080" height="420" viewBox="0 0 1080 420" fill="none" xmlns="http://www.w3.org/2000/svg">
  <title>CookMoxs CS-03 v2 Autumn contour study</title>
  <desc>Autumn contour foundation with grounded, warm, mature, calm, abundant shape logic and rounded descending cadence.</desc>

  <rect width="1080" height="420" fill="#F3E9D7"/>

  <path
    d="
      M0 182
      C28 170, 54 164, 82 167
      C112 170, 142 184, 170 198
      C198 212, 226 222, 256 221
      C286 220, 314 208, 342 194
      C370 180, 398 170, 426 171
      C454 172, 482 182, 508 193
      C534 204, 560 212, 586 211
      C612 210, 638 202, 664 193
      C690 184, 716 176, 742 176
      C768 176, 794 183, 820 193
      C846 203, 872 214, 900 221
      C928 228, 958 232, 990 229
      C1022 226, 1052 214, 1080 202
      L1080 420
      L0 420
      Z"
    fill="#A78658"
    opacity="0.18"
  />

  <path
    d="
      M0 188
      C26 175, 52 167, 78 169
      C108 171, 138 185, 166 200
      C194 215, 221 226, 250 225
      C279 224, 306 212, 333 198
      C360 184, 387 173, 414 172
      C441 171, 468 179, 494 191
      C520 203, 545 212, 571 213
      C597 214, 622 208, 646 200
      C670 192, 694 182, 718 180
      C742 178, 766 181, 790 189
      C814 197, 838 208, 863 217
      C888 226, 914 232, 942 234
      C970 236, 999 232, 1027 223
      C1051 215, 1066 208, 1080 202"
    stroke="#6B583A"
    stroke-width="10"
    stroke-linecap="round"
    stroke-linejoin="round"
  />

  <path
    d="
      M0 208
      C30 198, 60 193, 90 196
      C120 199, 149 210, 177 221
      C205 232, 233 240, 261 239
      C289 238, 317 230, 345 219
      C373 208, 401 198, 429 197
      C457 196, 485 203, 511 213
      C537 223, 562 230, 588 231
      C614 232, 640 227, 666 219
      C692 211, 718 202, 744 199
      C770 196, 796 199, 822 207
      C848 215, 874 225, 901 233
      C928 241, 956 246, 985 245
      C1014 244, 1047 236, 1080 224"
    stroke="#7A6644"
    stroke-width="5"
    stroke-linecap="round"
    stroke-linejoin="round"
    opacity="0.78"
  />

  <path
    d="
      M0 232
      C34 227, 69 224, 104 227
      C139 230, 171 237, 202 243
      C233 249, 264 253, 295 251
      C326 249, 357 242, 388 234
      C419 226, 450 221, 480 222
      C510 223, 539 229, 567 236
      C595 243, 623 247, 651 246
      C679 245, 707 240, 736 233
      C765 226, 794 221, 823 222
      C852 223, 881 229, 910 236
      C939 243, 968 248, 998 249
      C1028 250, 1056 246, 1080 240"
    stroke="#8B744B"
    stroke-width="3"
    stroke-linecap="round"
    stroke-linejoin="round"
    opacity="0.46"
  />
</svg>